<svg width="16" height="16" viewBox="0 0 16 16" fill="none" xmlns="http://www.w3.org/2000/svg">
<g id="Frame">
<path id="Vector" d="M4.5 2V3.5M11.5 2V3.5M2 12.5V5C2 4.60218 2.15804 4.22064 2.43934 3.93934C2.72064 3.65804 3.10218 3.5 3.5 3.5H12.5C12.8978 3.5 13.2794 3.65804 13.5607 3.93934C13.842 4.22064 14 4.60218 14 5V12.5M2 12.5C2 12.8978 2.15804 13.2794 2.43934 13.5607C2.72064 13.842 3.10218 14 3.5 14H12.5C12.8978 14 13.2794 13.842 13.5607 13.5607C13.842 13.2794 14 12.8978 14 12.5M2 12.5V7.5C2 7.10218 2.15804 6.72064 2.43934 6.43934C2.72064 6.15804 3.10218 6 3.5 6H12.5C12.8978 6 13.2794 6.15804 13.5607 6.43934C13.842 6.72064 14 7.10218 14 7.5V12.5M8 8.5H8.00533V8.50533H8V8.5ZM8 10H8.00533V10.0053H8V10ZM8 11.5H8.00533V11.5053H8V11.5ZM6.5 10H6.50533V10.0053H6.5V10ZM6.5 11.5H6.50533V11.5053H6.5V11.5ZM5 10H5.00533V10.0053H5V10ZM5 11.5H5.00533V11.5053H5V11.5ZM9.5 8.5H9.50533V8.50533H9.5V8.5ZM9.5 10H9.50533V10.0053H9.5V10ZM9.5 11.5H9.50533V11.5053H9.5V11.5ZM11 8.5H11.0053V8.50533H11V8.5ZM11 10H11.0053V10.0053H11V10Z" stroke="#919191" stroke-linecap="round" stroke-linejoin="round"/>
</g>
</svg>
